<svg width="320" height="72" viewBox="0 0 320 72" fill="none" xmlns="http://www.w3.org/2000/svg" role="img" aria-label="Whistlevault">
  <!-- Variante per sfondi scuri (es. topbar navy) -->
  <g transform="translate(4,4)">
    <path d="M12 10 H52 A2 2 0 0 1 54 12 V30 Q54 48 32 58 Q10 48 10 30 V12 A2 2 0 0 1 12 10 Z" fill="#FFFFFF"/>
    <circle cx="25" cy="30" r="3.2" fill="#0F172A"/>
    <g fill="none" stroke="#0F172A" stroke-width="2.4" stroke-linecap="round">
      <path d="M29.59 23.45 A8 8 0 0 1 29.59 36.55"/>
      <path d="M31.89 20.17 A12 12 0 0 1 31.89 39.83" stroke="#0369A1"/>
      <path d="M34.18 16.90 A16 16 0 0 1 34.18 43.10" stroke="#0369A1"/>
    </g>
  </g>
  <text x="74" y="46" font-family="-apple-system, BlinkMacSystemFont, 'Segoe UI', Roboto, Arial, sans-serif" font-size="30" font-weight="700" letter-spacing="-0.3">
    <tspan fill="#FFFFFF">Whistle</tspan><tspan fill="#7FB2D6">vault</tspan>
  </text>
</svg>
