<?xml version="1.0" encoding="utf-8" ?><svg xmlns="http://www.w3.org/2000/svg" xmlns:xlink="http://www.w3.org/1999/xlink" width="1024" height="1024" viewBox="0 0 1024 1024"><path fill="#253D58" d="M510.104 110.522C514.88 110.708 517.579 111.655 520.169 115.963C522.942 120.576 525.276 125.486 527.66 130.312L539.694 154.87C550.371 176.713 562.43 200.116 572.217 222.142C592.592 201.275 614.565 181.632 634.747 160.507C637.674 157.443 640.928 154.555 643.951 151.606C651.91 143.844 658.566 142.322 664.427 153.616C669.889 164.143 674.877 175.221 680.003 186.068C688.298 203.636 696.861 221.076 705.689 238.383C722.728 221.681 741.937 206.282 759.706 190.297C766.11 184.536 772.693 178.183 779.665 173.278C781.367 172.081 785.821 171.554 787.77 172.596C792.904 174.666 793.768 180.762 793.97 185.662C793.951 202.534 793.963 219.43 793.979 236.314L794.028 342.317L794.11 460.264C794.172 481.272 794.74 502.924 794.342 523.861C794.025 536.181 793.169 548.482 791.777 560.728C787.879 594.701 779.064 627.928 765.61 659.366C722.177 760.279 641.306 839.19 548.081 894.976C536.907 901.663 525.97 909.282 513.807 914.119C502.042 913.757 463.392 887.534 451.358 879.755C340.139 807.862 246.288 693.532 231.429 558.318C228.779 534.201 229.467 509.057 229.455 484.768L229.447 392.692L229.455 251.921L229.402 216.507C229.274 204.915 227.854 188.483 231.264 177.263C232.218 174.124 235.937 172.744 238.855 171.687C240.932 172.171 242.92 172.628 244.663 173.938C261.761 186.786 277.121 201.881 293.324 215.822C301.727 223.051 310.164 230.411 318.053 238.18C329.589 214.56 340.925 190.864 352.217 167.126C354.92 161.779 359.865 151.261 364.028 147.334C373.158 138.722 395.804 167.654 402.185 173.883C418.45 189.76 435.287 205.691 451.079 221.916L487.831 146.993C492.936 136.674 498.144 125.253 503.912 115.316C505.38 112.786 507.554 111.814 510.104 110.522Z"/><path fill="#84CAEA" d="M501.395 451.412C503.123 453.726 502.451 516.74 502.434 525.417L502.462 613.392L502.45 844.583C498.046 835.93 493.995 824.799 490.217 815.589L468.654 763.128C465.804 757.303 461.686 746.407 459.051 740.031L439.864 693.602L386.989 565.474C396.393 554.999 406.711 545.734 416.788 535.907L467.998 485.275C478.665 474.687 491.564 462.445 501.395 451.412Z"/><defs><linearGradient id="gradient_0" gradientUnits="userSpaceOnUse" x1="429.56387" y1="774.95349" x2="614.43616" y2="519.54651"><stop offset="0" stop-color="#2E68A0"/><stop offset="1" stop-color="#3880BE"/></linearGradient></defs><path fill="url(#gradient_0)" d="M521.501 451.695C524.518 453.53 548.532 478.588 552.854 482.913L636.381 565.562C627.64 588.617 616.666 613.682 607.192 636.651L555.49 762.185C548.188 780.572 540.686 798.879 532.985 817.103C529.932 824.405 524.854 837.842 521.194 844.367C520.508 827.601 521.097 808.479 521.248 791.513L521.454 718.339L521.501 451.695Z"/><path fill="#84CAEA" d="M774.784 345.888C774.895 346.11 775.006 346.333 775.116 346.555C775.434 400.078 775.409 478.063 774.905 529.5C774.446 576.184 764.543 608.509 750.856 645.395L704.325 602.454C690.329 588.916 675.187 575.373 660.752 562.285C664.295 553.291 672.478 539.057 677.25 530.101L708.15 472.047L752.974 387.458C759.995 374.131 767.283 358.536 774.784 345.888Z"/><path fill="#347BB9" d="M248.545 346.83C251.014 348.935 265.921 378.939 268.525 383.85L322.009 484.546L347.355 532.281C352.407 541.737 358.761 552.842 363.026 562.418C348.615 575.141 334.424 588.111 320.457 601.32C305.142 616.553 288.739 630.54 272.934 645.263C268.974 636.249 264.731 622.602 262 613.086C256.215 593.375 252.273 573.17 250.224 552.73C247.326 523.183 248.497 481.197 248.49 450.513C248.216 415.953 248.234 381.39 248.545 346.83Z"/><path fill="#347BB9" d="M382.547 604.813C384.872 607.301 402.965 653.115 405.982 660.374C437.577 735.938 468.775 811.669 499.573 887.562C497.01 886.218 494.555 884.663 492.088 883.148C476.016 872.985 459.637 863.042 443.985 852.237C417.526 833.973 394.746 813.555 371.424 791.65C371.743 778.906 372.913 764.424 373.675 751.583L377.972 679.294L380.625 633.813C381.096 625.103 381.384 613.201 382.547 604.813Z"/><path fill="#84CAEA" d="M640.732 604.889C642.135 606.599 643.735 646.092 644.079 651.937L649.315 739.737C650.282 756.097 650.95 774.783 652.544 790.96C615.99 827.906 576.376 855.757 532.422 882.543C529.866 884.152 527.072 885.64 524.424 887.115C544.646 834.782 567.917 780.444 589.445 728.554L619.34 656.41C626.422 639.187 633.234 621.939 640.732 604.889Z"/><path fill="#84CAEA" d="M252.478 312.622C290.16 312.107 328.752 312.521 366.506 312.507L366.515 447.216C366.673 473.957 366.632 500.699 366.393 527.439C358.845 514.992 352.767 502.633 346.002 489.815L316.842 435.132L277.981 361.701C269.555 345.791 260.068 328.837 252.478 312.622Z"/><path fill="#347BB9" d="M637.312 324.415C638.917 326.82 638.26 360.581 638.288 366.689L638.486 465.482C638.764 490.398 638.594 515.317 637.978 540.227C619.469 523.065 600.152 502.924 581.822 485.03C562.707 466.07 544.359 448.042 525.559 428.686C529.158 424.068 538.058 416.352 542.812 411.994L572.404 384.82C586.101 372.236 599.721 359.567 613.262 346.814C620.61 339.904 629.735 330.813 637.312 324.415Z"/><path fill="#347BB9" d="M385.409 323.91C388.129 325.57 393.759 331.144 396.315 333.578C402.357 339.395 408.445 345.164 414.578 350.885C442.667 376.539 470.553 402.415 498.232 428.511C479.542 447.372 460.689 466.069 441.673 484.602C423.681 502.597 403.541 522.892 385.145 540.295C384.914 514.158 384.897 488.02 385.093 461.883L385.409 323.91Z"/><path fill="#347BB9" d="M657.491 312.493L770.986 312.604C747.156 359.742 722.508 406.464 697.055 452.746L672.867 498.675C668.562 506.841 662.287 519.508 657.244 526.936C656.894 519.634 657.33 510.276 657.383 502.761L657.47 459.732L657.491 312.493Z"/><path fill="#347BB9" d="M511.337 142.292C514.589 144.757 542.625 204.291 546.924 212.741C560.332 239.091 574.807 266.855 587.612 293.508L513.625 293.502L436.366 293.512C438.463 288.02 442.66 280.151 445.358 274.769L460.533 244.461L511.337 142.292Z"/><path fill="#84CAEA" d="M401.265 312.504L622.073 312.491C615.851 319.028 608.244 325.687 601.569 331.899L568.324 362.93C549.554 380.647 530.62 398.191 511.525 415.558C503.929 407.175 490.705 395.853 482.066 387.862L431.683 341.15C421.735 331.923 410.667 322.133 401.265 312.504Z"/><defs><linearGradient id="gradient_1" gradientUnits="userSpaceOnUse" x1="639.5022" y1="755.89813" x2="708.04279" y2="610.39551"><stop offset="0" stop-color="#2F6EAD"/><stop offset="1" stop-color="#3B88C7"/></linearGradient></defs><path fill="url(#gradient_1)" d="M659.196 586.331C666.043 591.759 676.271 602.45 683.095 608.629C703.089 626.729 722.573 645.854 742.536 663.951C730.005 691.072 719.246 708.708 702.008 732.699C691.928 746.182 681.27 760.636 669.585 772.635C669.29 751.133 667.302 727.417 665.935 705.833C664.185 679.068 662.662 652.289 661.367 625.499C660.618 612.548 659.44 599.268 659.196 586.331Z"/><path fill="#84CAEA" d="M364.294 586.891C365.356 590.914 363.082 616.654 362.668 622.375C359.062 672.183 357.629 722.55 353.436 772.275C342.3 759.793 331.824 746.736 322.051 733.16C304.366 709.134 293.524 690.584 280.956 663.815C301.515 646.154 321.522 625.942 341.666 607.682C349.072 600.97 356.707 593.202 364.294 586.891Z"/><path fill="#84CAEA" d="M372.018 170.785C379.418 177.351 389.26 187.609 396.379 194.714C411.403 209.923 426.611 224.949 442.001 239.788C434.252 255.525 421.327 278.128 415.165 293.511L403.25 293.504C395.366 293.563 387.482 293.496 379.601 293.303C363.666 279.94 348.245 265.423 332.936 251.293C337.855 239.617 344.73 226.272 350.361 214.833C357.494 200.108 364.713 185.425 372.018 170.785Z"/><path fill="#347BB9" d="M651.389 171.366C653.189 172.607 686.607 242.698 690.897 251.437C681.181 260.321 671.407 269.142 661.577 277.899C656.506 282.372 648.468 289.701 643.038 293.417C636.096 293.591 628.725 293.485 621.75 293.5L608.799 293.52C600.347 275.706 590.599 257.819 581.572 240.185C593.734 226.515 609.597 212.545 622.857 199.452C630.197 192.205 644.093 177.22 651.389 171.366Z"/><path fill="#84CAEA" d="M774.85 201.95C776.014 204.351 775.102 285.021 775.101 293.511L674.231 293.509L673.792 293.007C674.493 291.41 675.856 290.082 677.173 288.927C696.828 271.7 716.269 254.073 735.699 236.594L758.984 215.646C763.829 211.289 769.69 205.737 774.85 201.95Z"/><path fill="#347BB9" d="M248.563 202.68C251.171 203.82 348.737 290.053 350.35 293.463C317.288 294.117 282.117 293.505 248.88 293.511C247.586 264.708 249.268 232.463 248.563 202.68Z"/></svg>